<?xml version="1.0" encoding="utf-8"?>
<!-- Generator: Adobe Illustrator 18.0.0, SVG Export Plug-In . SVG Version: 6.00 Build 0)  -->
<!DOCTYPE svg PUBLIC "-//W3C//DTD SVG 1.1//EN" "http://www.w3.org/Graphics/SVG/1.1/DTD/svg11.dtd">
<svg version="1.1" id="Layer_1" xmlns="http://www.w3.org/2000/svg" xmlns:xlink="http://www.w3.org/1999/xlink" x="0px" y="0px"
	 viewBox="0 0 64 64" enable-background="new 0 0 64 64" xml:space="preserve">
<g>
	<g id="circle_x5F_bg_11_">
		<circle fill="#FF722C" cx="32" cy="32" r="32"/>
	</g>
	<g>
		<g>
			<path fill="#FFFFFF" d="M23,37.5c-2.5,0-4.5,2-4.5,4.5s2,4.5,4.5,4.5s4.5-2,4.5-4.5S25.5,37.5,23,37.5z"/>
		</g>
		<g>
			<path fill="#FFFFFF" d="M19,25.5h-0.5v5.7H19c8.2,0,14.8,6.6,14.8,14.8v0.5h5.7V46C39.5,34.7,30.3,25.5,19,25.5z"/>
		</g>
		<g>
			<path fill="#FFFFFF" d="M19,13.5h-0.5v5.7H19c14.8,0,26.8,12,26.8,26.8v0.5h5.7V46C51.5,28.1,36.9,13.5,19,13.5z"/>
		</g>
	</g>
</g>
</svg>
