<?xml version="1.0"?>
<svg xmlns:rdf="http://www.w3.org/1999/02/22-rdf-syntax-ns#" xmlns="http://www.w3.org/2000/svg" xmlns:cc="http://creativecommons.org/ns#" xmlns:xlink="http://www.w3.org/1999/xlink" xmlns:dc="http://purl.org/dc/elements/1.1/" xmlns:svg="http://www.w3.org/2000/svg" id="svg2" viewBox="0 0 238.94 289.68" version="1.1">
  <defs id="defs4">
    <linearGradient id="linearGradient3824">
      <stop id="stop3826" stop-color="#babdb6" offset="0"/>
      <stop id="stop3828" stop-color="#eeeeec" offset="1"/>
    </linearGradient>
    <linearGradient id="linearGradient2959">
      <stop id="stop2961" stop-color="#eeeeec" offset="0"/>
      <stop id="stop2963" stop-color="#eeeeec" stop-opacity="0" offset="1"/>
    </linearGradient>
    <linearGradient id="linearGradient3867" x1="-401.64" xlink:href="#linearGradient3824" gradientUnits="userSpaceOnUse" y1="1257.2" gradientTransform="translate(324,-146)" x2="-634" y2="1115.3"/>
    <linearGradient id="linearGradient3869" x1="-401.64" xlink:href="#linearGradient3824" gradientUnits="userSpaceOnUse" y1="1257.2" gradientTransform="translate(174,-74)" x2="-634" y2="1115.3"/>
    <linearGradient id="linearGradient3871" x1="-401.64" xlink:href="#linearGradient3824" gradientUnits="userSpaceOnUse" y1="1257.2" gradientTransform="translate(0 6.0606)" x2="-634" y2="1115.3"/>
    <linearGradient id="linearGradient3873" y2="619.94" gradientUnits="userSpaceOnUse" y1="666.46" x2="-138.06" x1="-98.063">
      <stop id="stop3801" stop-color="#b1d28f" offset="0"/>
      <stop id="stop3803" stop-color="#fff" offset="1"/>
    </linearGradient>
    <linearGradient id="linearGradient3875" y2="1117.7" gradientUnits="userSpaceOnUse" y1="756.36" x2="-3.0313" x1="-46">
      <stop id="stop2941" stop-color="#77b753" offset="0"/>
      <stop id="stop2943" stop-color="#00892c" offset="1"/>
    </linearGradient>
    <linearGradient id="linearGradient3877" y2="1117.7" gradientUnits="userSpaceOnUse" y1="760.36" x2="-96.043" x1="-122">
      <stop id="stop2949" stop-color="#00892c" offset="0"/>
      <stop id="stop2951" stop-color="#006e29" offset="1"/>
    </linearGradient>
    <linearGradient id="linearGradient3879" y2="521.39" gradientUnits="userSpaceOnUse" y1="612.99" x2="-285.49" x1="-239.49">
      <stop id="stop3793" stop-color="#f29b68" offset="0"/>
      <stop id="stop3795" stop-color="#fff" offset="1"/>
    </linearGradient>
    <linearGradient id="linearGradient3881" y2="1136.4" gradientUnits="userSpaceOnUse" y1="650.36" x2="-192.39" x1="-194">
      <stop id="stop2933" stop-color="#eb7331" offset="0"/>
      <stop id="stop2935" stop-color="#cf4913" offset="1"/>
    </linearGradient>
    <linearGradient id="linearGradient3883" y2="1118.4" gradientUnits="userSpaceOnUse" y1="688.36" x2="-286" x1="-282">
      <stop id="stop2925" stop-color="#cf4913" offset="0"/>
      <stop id="stop2927" stop-color="#ac4311" offset="1"/>
    </linearGradient>
    <linearGradient id="linearGradient3885" x1="-416.63" gradientUnits="userSpaceOnUse" y1="475.84" gradientTransform="translate(0 6.0606)" x2="-513.1" y2="381.35">
      <stop id="stop3785" stop-color="#6193cf" offset="0"/>
      <stop id="stop3787" stop-color="#fff" offset="1"/>
    </linearGradient>
    <linearGradient id="linearGradient3887" x1="-356" gradientUnits="userSpaceOnUse" y1="588.36" gradientTransform="translate(0 6.0606)" x2="-413.19" y2="1182.4">
      <stop id="stop2917" stop-color="#2c72c7" offset="0"/>
      <stop id="stop2919" stop-color="#0057ae" offset="1"/>
    </linearGradient>
    <linearGradient id="linearGradient3889" x1="-463.14" gradientUnits="userSpaceOnUse" y1="670.36" gradientTransform="translate(0 6.0606)" x2="-463.14" y2="1202.4">
      <stop id="stop2909" stop-color="#0057ae" offset="0"/>
      <stop id="stop2911" stop-color="#00438a" offset="1"/>
    </linearGradient>
    <linearGradient id="linearGradient3891" x1="-417.19" xlink:href="#linearGradient2959" gradientUnits="userSpaceOnUse" y1="509.3" gradientTransform="matrix(.26531 0 0 1 -302.55 6.0606)" x2="-415.78" y2="1015.6"/>
    <linearGradient id="linearGradient3893" x1="-417.19" xlink:href="#linearGradient2959" gradientUnits="userSpaceOnUse" y1="509.3" gradientTransform="matrix(.26531 0 0 .70418 -129.55 277.62)" x2="-415.78" y2="1015.6"/>
    <linearGradient id="linearGradient3895" x1="-417.19" xlink:href="#linearGradient2959" gradientUnits="userSpaceOnUse" y1="509.3" gradientTransform="matrix(.26531 0 0 .49399 14.449 478.54)" x2="-415.78" y2="1015.6"/>
    <linearGradient id="linearGradient3897" x1="-417.19" xlink:href="#linearGradient2959" gradientUnits="userSpaceOnUse" y1="509.3" gradientTransform="matrix(.26531 0 0 .12975 -502.19 -440.05)" x2="-415.78" y2="1015.6"/>
    <linearGradient id="linearGradient3899" x1="-417.19" xlink:href="#linearGradient2959" gradientUnits="userSpaceOnUse" y1="509.3" gradientTransform="matrix(.26531 0 0 .12975 -350.69 -530.78)" x2="-415.78" y2="1015.6"/>
    <linearGradient id="linearGradient3901" x1="-417.19" xlink:href="#linearGradient2959" gradientUnits="userSpaceOnUse" y1="509.3" gradientTransform="matrix(.26531 0 0 .12975 -161.62 -635.97)" x2="-415.78" y2="1015.6"/>
  </defs>
  <g id="layer1" transform="translate(-222.42 -361.42)">
    <g id="g3838" transform="matrix(.33 0 0 .33 462.36 233.58)">
      <path id="path3834" fill-rule="evenodd" fill="url(#linearGradient3867)" d="m-268.09 969.34-114.9 20.642-20.095 53.202 305.48 73.357 89.929-43.343l-260.42-103.96z"/>
      <path id="path3830" fill-rule="evenodd" fill="url(#linearGradient3869)" d="m-418.09 1041.3-114.9 20.642-20.095 53.202 311.91 68 92.071-41.201-268.98-100.64z"/>
      <path id="path3807" fill-rule="evenodd" fill="url(#linearGradient3871)" d="m-592.09 1121.4-114.9 20.642-20.095 53.202 311.91 68 91-46.557-267.91-95.286z"/>
      <path id="path2889" fill-rule="evenodd" fill="#e9e9ff" d="m-100.08 619.94 97.053 49.195v404.75l-97.053-49.195z"/>
      <path id="path2891" fill-rule="evenodd" fill="#353564" d="m-193.1 663.79v404.75l93.012-43.848v-404.75z"/>
      <path id="path2893" fill-rule="evenodd" fill="#afafde" d="m-193.1 1068.5 97.053 49.195 93.012-43.848-97.053-49.195z"/>
      <path id="path2895" fill-rule="evenodd" fill="url(#linearGradient3873)" d="m-193.1 663.79 97.053 49.195 93.012-43.848-97.053-49.195z"/>
      <path id="path2897" fill-rule="evenodd" fill="url(#linearGradient3875)" d="m-96.043 712.99v404.75l93.012-43.848v-404.75z"/>
      <path id="path2899" fill-rule="evenodd" fill="url(#linearGradient3877)" d="m-193.1 663.79 97.053 49.195v404.75l-97.053-49.195z"/>
      <path id="path2869" fill-rule="evenodd" fill="#e9e9ff" d="m-240.08 521.39 94.195 47.747v571.87l-94.195-47.747z"/>
      <path id="path2871" fill-rule="evenodd" fill="#353564" d="m-333.1 565.24v571.87l93.012-43.848v-571.87z"/>
      <path id="path2873" fill-rule="evenodd" fill="#afafde" d="m-333.1 1137.1 94.195 47.747 93.012-43.848-94.195-47.747z"/>
      <path id="path2875" fill-rule="evenodd" fill="url(#linearGradient3879)" d="m-333.1 565.24 94.195 47.747 93.012-43.848-94.195-47.747z"/>
      <path id="path2877" fill-rule="evenodd" fill="url(#linearGradient3881)" d="m-238.9 612.99v571.87l93.012-43.848v-571.87z"/>
      <path id="path2879" fill-rule="evenodd" fill="url(#linearGradient3883)" d="m-333.1 565.24 94.195 47.747v571.87l-94.195-47.747z"/>
      <path id="path2849" fill-rule="evenodd" fill="#e9e9ff" d="m-420.08 387.41 99.91 50.643v783.34l-99.91-50.643z"/>
      <path id="path2851" fill-rule="evenodd" fill="#353564" d="m-513.1 431.26v783.34l93.012-43.848v-783.34z"/>
      <path id="path2853" fill-rule="evenodd" fill="#afafde" d="m-513.1 1214.6 99.91 50.643 93.012-43.848-99.91-50.643z"/>
      <path id="path2855" fill-rule="evenodd" fill="url(#linearGradient3885)" d="m-513.1 431.26 99.91 50.643 93.012-43.848-99.91-50.643z"/>
      <path id="path2857" fill-rule="evenodd" fill="url(#linearGradient3887)" d="m-413.19 481.9v783.34l93.012-43.848v-783.34z"/>
      <path id="path2859" fill-rule="evenodd" fill="url(#linearGradient3889)" d="m-513.1 431.26 99.91 50.643v783.34l-99.91-50.643z"/>
      <rect id="rect2957" opacity=".78195" height="770.74" width="3" y="481.43" x="-414.36" fill="url(#linearGradient3891)"/>
      <rect id="rect3739" opacity=".78195" height="542.74" width="3" y="612.37" x="-241.36" fill="url(#linearGradient3893)"/>
      <rect id="rect3743" opacity=".78195" height="380.74" width="3" y="713.37" x="-97.361" fill="url(#linearGradient3895)"/>
      <rect id="rect3747" opacity=".78195" transform="rotate(246)" height="100" width="3" y="-378.38" x="-614" fill="url(#linearGradient3897)"/>
      <rect id="rect3751" opacity=".78195" transform="rotate(246)" height="100" width="3" y="-469.1" x="-462.5" fill="url(#linearGradient3899)"/>
      <rect id="rect3755" opacity=".78195" transform="rotate(246)" height="100" width="3" y="-574.29" x="-273.43" fill="url(#linearGradient3901)"/>
    </g>
  </g>
  <metadata>
    <rdf:RDF>
      <cc:Work>
        <dc:format>image/svg+xml</dc:format>
        <dc:type rdf:resource="http://purl.org/dc/dcmitype/StillImage"/>
        <cc:license rdf:resource="http://creativecommons.org/licenses/publicdomain/"/>
        <dc:publisher>
          <cc:Agent rdf:about="http://openclipart.org/">
            <dc:title>Openclipart</dc:title>
          </cc:Agent>
        </dc:publisher>
        <dc:title>column chart</dc:title>
        <dc:date>2010-04-07T20:33:10</dc:date>
        <dc:description>chart, clip art, clipart, graph, statistic, </dc:description>
        <dc:source>http://openclipart.org/detail/39001/column-chart-by-rg1024</dc:source>
        <dc:creator>
          <cc:Agent>
            <dc:title>rg1024</dc:title>
          </cc:Agent>
        </dc:creator>
        <dc:subject>
          <rdf:Bag>
            <rdf:li>chart</rdf:li>
            <rdf:li>clip art</rdf:li>
            <rdf:li>clipart</rdf:li>
            <rdf:li>graph</rdf:li>
            <rdf:li>statistic</rdf:li>
          </rdf:Bag>
        </dc:subject>
      </cc:Work>
      <cc:License rdf:about="http://creativecommons.org/licenses/publicdomain/">
        <cc:permits rdf:resource="http://creativecommons.org/ns#Reproduction"/>
        <cc:permits rdf:resource="http://creativecommons.org/ns#Distribution"/>
        <cc:permits rdf:resource="http://creativecommons.org/ns#DerivativeWorks"/>
      </cc:License>
    </rdf:RDF>
  </metadata>
</svg>
